HIERARCHY
ROOT Hips
{
	OFFSET	-0.0298	89.6394	74.4011
	CHANNELS 6 Xposition Yposition Zposition Zrotation Xrotation Yrotation
	JOINT Chest
	{
		OFFSET	0	16.383	0
		CHANNELS 3 Zrotation Xrotation Yrotation
		JOINT LeftCollar
		{
			OFFSET	3.81	32.766	-3.81
			CHANNELS 3 Zrotation Xrotation Yrotation
			JOINT LeftUpArm
			{
				OFFSET	14.5367	0	3.8951
				CHANNELS 3 Zrotation Xrotation Yrotation
				JOINT LeftLowArm
				{
					OFFSET	30.2895	0	0
					CHANNELS 3 Zrotation Xrotation Yrotation
					JOINT LeftHand
					{
						OFFSET	27.2415	0	0
						CHANNELS 3 Zrotation Xrotation Yrotation
						End Site
						{
							OFFSET	20.3835	0	0
						}
					}
				}
			}
		}
		JOINT Neck
		{
			OFFSET	0	32.766	0
			CHANNELS 3 Zrotation Xrotation Yrotation
			JOINT Head
			{
				OFFSET	0	19.6215	0
				CHANNELS 3 Zrotation Xrotation Yrotation
				End Site
				{
					OFFSET	0	0	10.16
				}
			}
		}
		JOINT RightCollar
		{
			OFFSET	-3.81	32.766	-3.81
			CHANNELS 3 Zrotation Xrotation Yrotation
			JOINT RightUpArm
			{
				OFFSET	-14.5367	0	3.8951
				CHANNELS 3 Zrotation Xrotation Yrotation
				JOINT RightLowArm
				{
					OFFSET	-30.2895	0	0
					CHANNELS 3 Zrotation Xrotation Yrotation
					JOINT RightHand
					{
						OFFSET	-27.2415	0	0
						CHANNELS 3 Zrotation Xrotation Yrotation
						End Site
						{
							OFFSET	-20.3835	0	0
						}
					}
				}
			}
		}
	}
	JOINT LeftUpLeg
	{
		OFFSET	9.3345	0	0
		CHANNELS 3 Zrotation Xrotation Yrotation
		JOINT LeftLowLeg
		{
			OFFSET	0	-45.5295	0
			CHANNELS 3 Zrotation Xrotation Yrotation
			JOINT LeftFoot
			{
				OFFSET	0	-44.196	0
				CHANNELS 3 Zrotation Xrotation Yrotation
				End Site
				{
					OFFSET	0	0	26.4795
				}
			}
		}
	}
	JOINT RightUpLeg
	{
		OFFSET	-9.3345	0	0
		CHANNELS 3 Zrotation Xrotation Yrotation
		JOINT RightLowLeg
		{
			OFFSET	0	-45.5295	0
			CHANNELS 3 Zrotation Xrotation Yrotation
			JOINT RightFoot
			{
				OFFSET	0	-44.196	0
				CHANNELS 3 Zrotation Xrotation Yrotation
				End Site
				{
					OFFSET	0	0	26.4795
				}
			}
		}
	}
}
MOTION
Frames:	20
Frame Time:	0.0166667
2.8007	88.633	242.364	-1.56092	-0.0528497	-8.9422	4.6728	10.4384	-1.43363	-11.9233	11.1222	3.08459	-63.8489	15.625	-28.7959	-2.18477	-21.69	2.79859	-13.3038	33.8369	17.574	-2.21216	18.0859	7.54773	-2.36686	17.9494	7.42623	6.41594	13.6765	16.7084	60.0299	3.08817	-0.69531	0.611803	-0.870562	24.3301	15.9582	-7.32381	-4.91963	8.8584	-9.94609	3.89929	-6.14382	11.713	-1.99557	0.0540269	-1.24905	6.79992	-6.02943	-1.69196	-12.2411	-1.75362	23.8673	12.751	-2.74745	-0.0446468	-8.9735	
2.6309	88.873	243.32	-2.19283	0.237781	-9.51828	3.85045	10.3195	-1.04236	-11.7349	10.7574	2.91762	-63.2381	14.5747	-28.0591	-2.76972	-20.7268	1.57175	-13.4821	33.2032	18.2817	-1.39944	17.9066	7.95633	-2.61399	17.9165	7.47586	6.40986	13.2284	16.6732	60.7554	3.58569	-0.453087	0.162993	0.343139	23.8931	17.7486	-7.01898	-5.36059	9.59912	-9.28273	4.1923	-5.61649	10.5619	-2.57831	-0.396504	-0.841722	7.55922	-5.63884	-2.05259	-11.8436	-1.63967	25.1836	11.7763	-3.23088	0.140582	-8.10432	
2.149	89.0844	243.48	-2.50329	0.322742	-9.87936	2.98716	10.5748	-0.754414	-11.697	10.3435	2.58026	-62.5786	13.7751	-27.6644	-2.8094	-19.9849	0.94267	-13.8514	32.6141	18.6331	-1.45634	17.5233	8.05532	-2.47054	17.7806	7.76588	6.39857	12.6259	16.5799	61.6187	4.07648	-0.194492	-0.356242	0.99021	23.8212	18.3909	-7.22368	-5.439	9.98306	-8.64848	4.17081	-5.84645	10.9436	-3.42913	-0.0562561	-1.7007	8.7902	-5.84314	-2.20863	-11.9134	-1.4937	25.9621	11.3825	-3.52634	1.38512	-7.66355	
2.067	89.1955	244.678	-2.59842	0.311671	-10.0215	2.4176	10.7571	-0.654705	-11.5674	9.93634	2.45667	-62.815	13.3697	-27.5055	-2.23199	-19.2354	0.769459	-14.3782	32.235	18.9239	-2.09021	17.3321	7.69717	-2.6671	17.4793	7.53416	5.57129	11.9805	16.1168	62.4087	4.58043	0.31922	-0.586117	1.68874	23.9829	18.6569	-6.13364	-6.74811	10.1058	-7.92027	4.03505	-6.11301	10.8768	-3.69191	0.17857	-2.18898	9.25161	-6.26278	-2.26574	-12.1963	-1.45716	26.9473	10.8748	-3.63521	1.48043	-6.98604	
2.0304	89.2727	245.674	-3.14959	0.639281	-10.5629	1.78976	10.6219	-0.106118	-10.8764	9.61897	2.49186	-62.6459	13.0932	-27.2218	-2.05113	-19.0299	0.143439	-15.1375	32.0984	19.4713	-1.62556	17.2542	7.70343	-2.66169	17.3237	7.47195	5.85048	11.6977	16.0053	61.5902	4.22472	1.16998	0.257187	2.62261	23.7737	18.3693	-5.81684	-7.33477	10.3395	-6.86826	4.29276	-5.98957	10.4998	-3.6145	0.416575	-3.01338	9.29547	-6.68539	-3.03761	-13.2482	-1.47173	28.5008	11.7615	-3.84059	1.30975	-6.41358	
2.2835	89.505	247.225	-3.60681	0.881977	-10.8406	2.04254	10.4758	0.179085	-10.988	9.46771	2.41846	-62.4342	12.9474	-27.0625	-1.88561	-19.2072	-0.56569	-15.9301	32.1435	20.3217	-2.67806	17.2959	7.13342	-2.84918	17.296	7.08836	5.54616	11.6134	15.8256	61.4927	4.82	1.6107	0.123683	2.29154	23.8796	18.3185	-5.81466	-7.65633	10.4657	-6.03062	4.37325	-5.71293	9.68332	-3.463	0.434944	-3.16924	9.17205	-6.88853	-3.73943	-13.7055	-1.37543	29.5924	12.1151	-4.03171	4.45295	-7.26134	
2.4714	89.6986	248.093	-3.937	1.0504	-11.0122	1.18373	10.3259	0.254217	-10.0234	9.38751	2.69228	-62.3166	12.8981	-26.9836	-1.75775	-19.5324	-1.23466	-15.6796	31.7818	19.6835	-2.12531	17.3697	7.07151	-3.18704	17.3368	6.73311	5.559	11.529	15.6103	61.9357	5.98045	2.43033	0.088721	1.47166	23.9953	17.7089	-5.50541	-7.93504	10.7756	-5.87995	4.53652	-5.84055	10.3696	-3.09795	0.695326	-4.02083	8.8669	-7.08179	-4.22567	-13.918	-1.28184	31.0891	11.1894	-4.11844	4.38928	-6.35371	
2.5427	89.7342	248.957	-4.51921	1.2149	-11.2749	1.6142	10.2785	0.526245	-10.8529	8.91509	2.4324	-61.5457	12.6166	-26.8733	-1.49456	-19.6387	-1.23272	-15.6579	31.3946	19.5867	-2.93155	17.3565	6.70197	-3.04266	17.3536	6.67062	4.72692	11.4161	15.1714	62.3514	6.86832	3.14822	0.0623717	0.621832	24.1366	17.6571	-5.2684	-8.12365	11.0042	-5.1937	4.7631	-5.40119	10.2907	-3.41581	0.707549	-4.49557	9.14417	-6.60236	-4.39089	-13.7129	-1.18006	31.9507	10.0728	-4.00561	6.29508	-6.47782	
2.6321	89.8777	249.979	-4.8585	1.25205	-11.3678	1.19892	10.2349	0.548021	-10.5838	8.75105	2.567	-61.0898	12.5263	-27.0795	-1.40875	-19.6878	-0.919347	-14.6182	29.9095	17.8051	-2.57289	17.444	6.83252	-3.23193	17.3854	6.60856	4.74925	11.3946	15.1429	62.4171	7.37053	3.70596	0.198201	-0.163672	24.2418	16.9306	-5.39504	-7.53889	11.2267	-4.9954	4.85498	-5.30991	10.6671	-3.63378	0.831847	-4.83677	9.40841	-7.75327	-5.23965	-13.9992	0.0850572	33.9756	9.27867	-4.03178	7.91111	-6.77962	
2.6812	89.9167	250.509	-5.01122	1.15259	-11.333	1.26986	10.3426	0.502058	-10.7307	8.68091	2.5823	-60.8684	12.5181	-27.0977	-1.31729	-19.862	-2.11975	-15.0263	29.0605	18.3733	-3.15363	17.4547	6.77565	-3.21061	17.4373	6.75077	4.42411	11.3526	15.0267	61.8852	7.40124	4.07602	0.416138	-2.10606	26.3898	17.301	-5.04967	-9.26076	11.3072	-4.72915	4.72482	-5.50968	11.1807	-3.91165	1.1401	-5.34345	9.84219	-8.42942	-5.70968	-13.8947	0.996149	35.7231	8.18867	-4.06331	8.64866	-7.08001	
2.7953	89.9002	251.167	-5.13006	1.04155	-11.2911	0.532044	10.2997	0.178171	-10.3977	8.56581	3.01425	-60.1751	12.4645	-27.7835	-1.25372	-20.1005	-1.93298	-15.1192	28.4488	18.3685	-2.73062	17.6495	7.19882	-3.41856	17.5033	6.73666	4.65969	11.5368	15.3714	61.5699	7.34485	4.64661	1.1504	-2.30543	26.7071	16.8004	-5.29253	-9.27278	11.2987	-4.22895	4.55463	-5.68962	11.3085	-3.75521	1.3326	-5.6752	9.79528	-8.49416	-5.67272	-13.8769	1.33018	36.808	7.4097	-4.01611	9.59919	-7.77604	
2.9363	89.9021	251.9	-5.24201	0.971888	-11.2429	0.384535	10.3053	0.130607	-10.6624	8.53892	2.96479	-59.4586	12.2035	-28.2724	-1.2118	-20.3014	-1.95978	-15.3767	28.2301	18.4274	-3.00315	17.6618	7.05239	-3.23578	17.5808	7.0004	4.31085	11.6728	15.2082	61.3783	7.52994	5.58189	1.52576	-3.07199	28.3509	16.1381	-5.7457	-10.032	11.2858	-3.78801	4.40594	-5.90647	11.3397	-3.54315	1.51884	-5.94716	9.62218	-9.35311	-6.17521	-13.7115	2.50602	38.8107	6.23106	-4.02801	9.89152	-8.29506	
3.1329	89.9093	252.54	-5.31417	0.949603	-11.1893	0.228523	10.2379	0.0955209	-10.7436	8.60646	2.92213	-59.0616	11.9445	-28.551	-1.20772	-20.3685	-2.31438	-15.7427	28.1431	18.9097	-3.34792	17.8956	6.77544	-3.56707	17.7948	6.74489	4.33031	11.785	15.1464	61.0812	7.66991	6.15165	1.66923	-3.47101	29.2878	16.0332	-6.0417	-10.7347	10.5759	-2.92156	3.97738	-5.42034	10.5816	-3.25013	1.68504	-6.07955	9.59266	-9.78499	-6.61424	-13.6984	3.3323	40.4823	5.28619	-4.00768	10.5955	-9.40721	
3.7127	90.0028	253.464	-5.39383	0.962978	-11.1201	0.0935063	10.0551	-0.0498659	-11.0891	8.57696	2.97965	-58.4611	11.7124	-28.6571	-1.229	-20.2671	-2.69688	-15.9794	28.1243	18.384	-3.49827	18.0264	6.94033	-3.68124	17.8492	6.80593	4.0603	11.9612	15.0741	60.6775	8.06674	7.26759	1.91273	-4.1659	30.748	15.16	-5.96017	-10.0247	10.4449	-2.74359	3.79265	-5.37764	10.6811	-3.17242	1.80385	-6.29302	9.6339	-9.84304	-6.81467	-13.7515	3.76082	41.6731	4.56053	-3.94332	10.974	-10.5301	
3.9142	90.0065	253.902	-5.49956	0.963374	-10.9995	0.115019	9.95333	-0.217067	-11.2203	8.56954	3.08568	-58.185	11.6303	-28.8129	-1.26299	-20.1569	-2.73471	-16.142	28.2595	18.0237	-3.7093	18.0492	7.02343	-3.78731	17.932	6.94754	4.10876	12.0845	15.1284	60.2354	8.25457	7.89208	1.92828	-4.66919	32.0291	14.4865	-5.7187	-9.73039	10.3739	-2.60003	3.57879	-5.31262	10.7432	-3.11536	1.85087	-6.38997	9.67035	-9.88657	-6.96948	-13.8422	4.43628	43.6304	3.26498	-4.51175	9.42807	-10.1497	
4.0583	90.0166	254.24	-5.52754	0.96959	-10.9599	-0.10555	9.66937	-0.39562	-11.2086	8.70651	3.33983	-57.778	11.1915	-29.6591	-1.37543	-19.689	-2.59799	-16.6	28.1499	18.3306	-3.7735	18.2561	7.28787	-3.9583	17.9845	7.07607	4.00272	12.3926	15.3265	59.9494	8.32629	8.6716	2.15272	-5.03403	32.7194	13.7122	-5.28169	-8.85962	10.2442	-2.35221	3.53879	-5.46894	10.8638	-3.2885	2.14388	-6.62659	9.88308	-10.0822	-7.41575	-13.9503	5.09867	45.2484	2.26808	-3.94196	7.55221	-11.3027	
4.3268	89.9962	254.79	-5.69013	1.01539	-10.9732	-0.0565347	9.58635	-0.416516	-11.2697	8.71659	3.43047	-57.4884	11.0971	-30.0851	-1.59059	-19.4257	-3.00999	-16.9927	28.0437	18.5459	-3.93982	18.1669	7.29528	-4.03409	18.1012	7.23072	3.98424	12.4722	15.4117	59.4374	8.33211	9.47472	2.22999	-5.46575	34.1514	13.4131	-5.30614	-9.42988	10.2927	-1.92814	3.57783	-5.42528	10.7033	-3.40399	2.19714	-6.81745	9.95218	-10.1084	-8.12005	-14.0787	5.50319	46.4325	1.64839	-4.87616	7.26073	-11.9797	
4.3746	90.0132	255.36	-5.76417	1.07345	-10.7726	-0.0561196	9.47459	-0.655948	-11.2035	8.76334	3.50375	-57.3402	11.0801	-30.5797	-2.20301	-19.2872	-2.86587	-16.6375	28.1181	18.115	-3.9729	18.1863	7.24354	-4.06718	18.1207	7.17888	3.96552	12.4986	15.4925	59.0369	8.30028	10.293	2.41393	-5.73632	34.7486	13.0929	-5.21524	-9.41794	10.276	-1.75989	3.40221	-5.4431	10.7154	-3.44138	2.27513	-6.96894	9.99227	-10.2659	-8.56142	-14.3408	6.24367	47.447	0.0783708	-6.61084	6.97039	-12.6778	
4.457	90.0076	255.806	-5.76499	1.08805	-10.6459	-0.118883	9.40957	-0.812331	-11.5874	8.71831	3.51587	-56.8725	11.0183	-30.6805	-2.76872	-19.1869	-3.14284	-16.3812	28.0593	17.9989	-4.15816	18.1301	7.18412	-4.22866	18.0811	7.13567	3.8534	12.4997	15.5025	58.6167	8.2188	11.4658	2.65626	-5.97705	35.22	12.2686	-4.81676	-8.19394	10.1275	-1.40528	3.28789	-5.37391	10.5104	-3.33105	2.30451	-7.13666	9.83575	-10.4321	-9.14676	-14.5107	6.48381	48.472	-0.782081	-6.83977	6.49389	-12.3992	
4.5399	90.0023	256.304	-5.75607	1.20407	-10.4305	-0.2037	9.18822	-1.17032	-11.636	8.80985	3.7239	-56.6989	11.0047	-30.8816	-3.2377	-19.1372	-3.56664	-16.4151	27.8772	17.9372	-4.23815	18.1639	7.41186	-4.31215	18.0677	7.23481	3.85233	12.661	15.7203	58.2415	8.09099	12.3748	2.60765	-6.43278	36.8796	12.2051	-5.03382	-9.59716	10.0784	-1.31817	3.10032	-5.32493	10.3423	-3.13498	2.26003	-7.23129	9.61449	-10.4661	-9.63992	-14.646	6.87854	48.9764	-1.76456	-5.14105	3.35508	-13.2133	
